<!DOCTYPE svg PUBLIC "-//W3C//DTD SVG 1.1//EN" "http://www.w3.org/Graphics/SVG/1.1/DTD/svg11.dtd">
<svg version="1.1" id="Layer_1" xmlns="http://www.w3.org/2000/svg" width="300px" height="154.444px">
<path fill="#164989" d="M96.123,60.119c0,33.202-21.517,60.12-48.063,60.12C21.512,120.238,0,93.32,0,60.119
	C0,26.92,21.512,0,48.06,0C74.606,0,96.123,26.92,96.123,60.119 M48.06,116.056c24.208,0,43.9-25.059,43.9-55.86
	c0-30.798-19.692-55.858-43.9-55.858c-24.208,0-43.905,25.06-43.905,55.858C4.155,90.997,23.853,116.056,48.06,116.056 M48.06,6.955
	c22.764,0,41.284,23.886,41.284,53.24c0,29.356-18.52,53.24-41.284,53.24c-22.766,0-41.282-23.884-41.282-53.24
	C6.778,30.841,25.294,6.955,48.06,6.955 M50.909,13.51l-0.613-0.305c-0.104,1.744-0.409,3.386-0.409,5.131
	c-0.104,0.201-0.414,0.41-0.313,0.715c2.363,2.051,5.026,3.996,7.49,5.843c3.18,2.256,6.561,4.615,10.044,6.359
	c1.539-0.925,3.385-1.438,5.131-2.152v-0.309c-3.592-2.052-6.769-4.101-10.357-6.052l-0.208,0.105c0,1.435,0.102,2.868,0.102,4.204
	c-1.637-0.819-3.275-2.155-4.816-3.177v-0.207c0-0.307,0.411-0.41,0.717-0.41c1.124-0.308,2.253-0.612,3.279-1.027v-0.203
	L50.909,13.51z M52.141,13.205h-0.309c1.643,1.538,3.28,2.872,4.92,4.308c4.414,4.206,9.432,7.178,14.666,9.74
	c-2.871-3.074-5.233-5.637-8.308-8.304L52.141,13.205z M46.908,20.794c-0.718-0.518-1.639-0.822-2.562-0.718
	c-2.052,0-2.151,2.663-3.284,3.794c-0.301,0.82-1.33,1.333-1.33,2.459c0.513,1.539,2.562,1.637,3.995,2.05
	c0.619-0.1,1.44,0.205,1.748-0.413c0.101-0.408-0.206-0.408-0.412-0.408c-0.513-0.204-0.612-0.713-0.513-1.229
	c0.311-0.409,0.824-0.511,1.341-0.511c0.817,0.715,1.427-0.411,2.351-0.106c0.82,0.106,1.133,1.027,1.333,1.745
	c-0.921-0.204-1.943-0.611-2.975-0.41c-0.303,0.512,0,1.025,0.205,1.435c0.617-0.103,1.437-0.202,2.158-0.307
	c0.413,0,0.821,0.204,0.925,0.616c2.049,0.41,4.407,0.309,5.94,1.64c0,0.618,0.925,1.229,0.313,1.744
	c-1.95-1.95-4.923-2.255-7.588-1.744c-0.513-0.307,0.1-0.923-0.312-1.23c-1.743,0.307-3.178,0.924-4.82,1.642l-0.204-0.105
	c0.105-0.306,0-0.512,0.105-0.714c-0.411-0.208-0.717-0.516-1.231-0.516c-0.716,1.229,0.514,2.464,0.409,3.694
	c0.513,1.332,1.227-0.414,2.049-0.206c0.618,0,1.54-0.516,1.949,0.206c-0.818,0.408-1.638,0.511-2.357,1.122
	c-0.202,0.314,0.104,0.52,0.205,0.719c0.717,0.922,2.152,0.309,3.075,0.825c0,0.205-0.104,0.408-0.307,0.612
	c-1.224,0.104-1.845,1.129-2.46,1.949c-0.611-0.206-0.41-0.922-0.514-1.335c-0.097-0.51-0.72-0.51-1.021-0.51
	c-0.312,1.334-0.827,2.462-0.925,3.691c0.202,0.819,1.127,0.514,1.638,0.614c0.821,0.206,0.308,1.234,0.618,1.744
	c0.716,0.203,1.639,0.203,2.457,0c0.105,0.103,0.207,0.307,0.105,0.616c-0.306,0.512-0.823,0.613-1.333,0.719
	c-0.205,0.2-0.617,0.511-0.411,0.921c1.33,0.716-0.102,2.666,1.229,3.383c1.332,0.719,3.285,0.41,4.516-0.203
	c0.818-0.208,1.331-1.131,2.357-0.822c0.104,0.205,0.307,0.101,0.307,0.408c2.053,0.106,3.999-0.203,5.844-0.507
	c0.722,0.099,1.435-0.515,1.846,0.099c0,0.101,0.107,0.205,0,0.308c-2.566,1.023-5.636,0.925-8.409,1.333
	c-1.741,0.512-0.921,2.356-1.126,3.793c-1.022,0.51-0.716-1.025-1.334-1.438c-2.668,0.102-4.922,1.025-7.377,1.643
	c-1.544,0.821-2.259,2.561-2.669,4.202c0,0.924-0.414,2.153,0.511,2.565c1.949,0.617,5.024,1.025,6.762-0.413
	c1.443-0.508,2.773-1.842,4.417-1.229c0.817-1.333,2.152-2.768,3.686-3.591c0.619-0.205,0.619-0.92,1.336-1.023
	c0.615,0.104,0.308,0.925,0.513,1.23c1.436,0.204,2.769-0.412,4.205-0.207c0.821,0.31,0.922,1.129,1.229,1.846
	c0,0.314-0.1,0.719-0.203,0.925c0.513,1.023-0.618,1.541-0.205,2.665c-1.747,2.667-4.202,4.92-7.487,5.536
	c-0.717,0.306-0.204,1.333-0.717,1.846c-3.589,2.358-9.023,3.485-10.152,8.407c-0.718,2.566,1.544,3.589,3.075,4.613
	c2.052,0.413,3.077,3.079,5.437,2.464c1.025-2.563,1.232-5.436,2.254-7.998c2.972-5.229,6.463-10.151,11.073-13.944
	c1.542-1.127,3.082-2.666,5.232-2.666c0.307,0,0.103,0.308,0.103,0.411c-1.952,0.613-3.588,1.944-4.922,3.176
	c-1.128,1.234-2.667,2.462-3.386,4.102c-2.562,3.177-5.228,6.972-6.869,10.665c-0.1,1.229-0.308,2.56-0.1,3.79
	c0.41,0,0.51-0.511,0.82-0.714c1.637-3.59,3.484-7.177,5.533-10.459c1.233-1.642,2.255-3.794,4.104-4.616l0.102,0.104
	c-2.359,3.074-4.304,6.459-5.95,10.048c-1.228,2.767-2.769,5.436-2.971,8.617c0.309,0.818,1.439,0.507,1.951,1.124
	c0.51,0.306,0.613,0.925,0.51,1.437c-0.1,0.41-0.51,0.821-0.918,0.821c-0.826-0.204-0.724-1.131-1.234-1.642
	c-0.309,0-0.613-0.311-0.82,0c-0.104,1.23,1.13,2.361,0.102,3.483c-0.921,0.618-0.719-0.819-1.331-1.229
	c-0.313-0.204-0.925-0.204-1.231,0c-2.974,2.772-7.185,4.308-11.382,4.821c-1.333,0.616-4.104-0.409-4.104,1.847
	c0.206,2.048-0.101,4.51,1.539,5.741c4.205,0.41,8.51,0.41,12.408-0.717c2.972-0.618,5.845-1.646,8.303-3.076
	c4.105-3.179,6.157-8.308,8.818-12.715c4.305-6.153,7.386-13.845,5.641-22.045c-0.204-4.507-4.715-5.949-7.181-8.718
	c-0.71-0.512-1.226,0.31-1.845,0.208c-1.229-0.617,0.619-0.721,0.619-1.436c-1.026-1.333-0.924-3.177-1.947-4.511
	c-0.615-0.409-1.027,0.305-1.642,0c-0.41-2.154-1.026-4.304-2.047-6.154c-2.258-1.54-2.358,2.256-4.414,2.153
	c0-0.101-0.205-0.101-0.1-0.303c0-0.313,0.507-0.416,0.715-0.619c0.509-0.41,0.509-1.332,0.509-1.949
	c-0.405-0.617-1.124-0.617-1.841-0.715c-0.409,0-0.513-0.412-0.409-0.823c0.613-0.923,1.741-0.1,2.666-0.1
	c1.027-0.721,2.05-0.412,3.074-0.823c0.821-0.308,1.027-1.024,0.922-1.842c0.308-0.106,0.719,0.202,0.925-0.208
	c0-0.513-0.104-1.128-0.41-1.537c-3.384-1.847-6.05-5.023-9.946-6.154c-0.616-0.306-1.949,0.209-1.744-0.924
	c-0.41-1.126-1.846-1.228-2.869-1.535c-0.206-0.309-0.107-0.722,0.207-0.82c0.099-0.206,0.099-0.41-0.105-0.617
	C48.04,23.357,47.527,21.817,46.908,20.794 M48.961,20.59c-0.311,0-0.615,0-0.82,0.204c-0.102,0.307-0.102,0.821,0.205,1.127
	c4.818,4,10.353,7.691,15.687,10.974c0.411,0.101,0.923,0.508,1.333,0.201c0.306-0.309,0.103-0.719-0.099-0.921
	C59.623,28.996,54.19,24.69,48.961,20.59 M54.703,33.302c-2.154,0.206-4.206-0.717-5.74-2.152c-0.312,0.103-0.312,0.511-0.211,0.716
	c0.721,1.13,2.262,1.847,3.692,2.255c1.031,2.155,3.287,3.077,5.54,3.281c0.207-0.102,0.517-0.102,0.412-0.41
	c-1.643-0.512-3.588-1.027-4.407-2.668c0.305-0.303,0.818-0.203,1.124-0.407C55.318,33.61,54.91,33.508,54.703,33.302
	 M61.367,34.737c-1.744,0.512-3.485-0.413-5.123-1.024l-0.105,0.309c1.742,0.92,3.286,2.255,5.534,1.943
	c0.308-0.096,0.516-0.305,0.516-0.715C62.189,34.844,61.882,34.737,61.367,34.737 M68.646,34.737
	c-0.199-0.511-0.616-0.82-1.229-0.82c-0.82-0.307-1.54,0.205-1.948,0.721c0.104,1.231-1.743,1.231-1.436,2.561
	c-0.307,0.721-1.024,0.721-1.535,0.925c0,0.307,0,0.408,0.099,0.615c0.921,0.103,1.747,0.718,2.669,0.307
	c0.407,0,0.407,0.307,0.407,0.613c-0.717,0.616-1.845,0.31-2.563,0.104v0.408c0.923,0.718,2.256,1.131,3.487,0.617
	C68.547,39.457,68.646,36.993,68.646,34.737 M35.835,36.79c-1.026-0.825-2.357-0.617-3.487-1.027
	c-2.049-0.513-3.687,0.719-5.127,1.639c-3.689,1.645-2.253,6.156-4.309,8.824c-0.309,1.742-0.309,3.894,1.027,5.122
	c1.132-0.102,1.951,0.924,3.076,0.617c1.744-0.819-0.82-1.845-0.099-3.075c1.022-0.102,0.715,1.23,1.435,1.537
	c0.715,0.206,0.92-0.613,1.537-0.716c0.925,0.512,0.411,1.744,1.025,2.458c1.333,1.952,3.688,2.668,6.151,2.874
	c1.744-0.104,2.565-1.333,3.385-2.77c0.513-1.742,1.229-4.202-0.205-5.637c-0.515-0.307-1.026,0.305-1.334,0
	c0.102-0.82,0.515-1.642,1.334-1.95c0.41-0.82,0.104-2.15-0.515-2.872c0.105-0.204,0.413-0.306,0.619-0.306
	c0.41-1.333,0.513-3.181-0.719-4.104c-0.618-0.203-1.229-0.712-1.844-0.51c0,0-0.107,0-0.107-0.102
	C37.169,36.689,36.351,36.481,35.835,36.79 M39.219,39.659c-0.098-0.307-0.309-0.513-0.714-0.408
	c-0.617,0.82-0.413,2.051-1.133,2.872c-0.308,0.206-0.818-0.31-1.022,0.206l0.41,0.508c1.745,0.72,1.025-2.048,2.361-1.845
	L39.219,39.659 M27.632,42.633c-0.818,0.717-0.818-0.719-1.635-0.511c-1.028,1.228-0.415,3.18-1.337,4.305
	c0.1,0.311,0.309,0.409,0.511,0.409c1.025-0.718,0.307-2.356,1.333-2.973c0.512,0.41,0,1.438,0.718,1.639
	C27.835,44.788,27.835,43.455,27.632,42.633 M34.603,42.429c-0.309,0.307-1.022,0.204-1.125-0.306
	c-0.818,0.105-1.231,1.228-1.54,1.739c-0.103,0.516-0.721,0.721-1.125,0.307c-0.824,0.924-1.134,2.567-0.925,4.003
	c0.102,0.309,0.513,0.309,0.716,0.202l0.102-2.149c0.107-0.722,0.725-0.312,1.129-0.106c0.613-0.306,0.513-1.126,0.719-1.74
	c0.303-0.924,0.818-0.411,1.435-0.516c0.515-0.304,0.924-0.715,0.924-1.33L34.603,42.429 M37.171,45.913
	c-0.205-1.126-1.435-0.82-2.257-0.82c-0.104,0.311-0.514,0.208-0.41,0.615l0.615-0.206c0.717,0.923-1.025,0.823-0.924,1.745h2.565
	C37.372,47.042,37.273,46.426,37.171,45.913 M39.012,49.193c-0.408,0.106-1.125-0.201-1.333,0.207
	c0.209,0.202,0.209,0.719,0.617,0.616C38.604,49.813,39.323,49.709,39.012,49.193 M38.604,51.964c0-0.408,0.408-0.617,0.408-0.922
	c-0.204-0.206-0.506,0-0.717,0.103c-0.716-0.205-1.126,0.819-1.944,0.309v0.406c0.506-0.1,0.922,0.308,1.328,0.513
	C38.091,52.479,38.506,52.271,38.604,51.964 M31.432,55.247c-1.336-0.206-1.648-1.951-3.08-1.847
	c-0.72,1.128-1.747,2.255-3.076,2.869c-3.076,1.849-2.361,5.847-3.895,8.613c-1.23,6.459-4.209,13.433-1.543,20.202
	c1.745,1.028,1.026,3.484,2.566,4.614c1.536,1.025,3.593,1.844,5.534,1.538c3.181-1.744,5.952,0.713,9.335,0.511
	c3.588-1.332,7.692-1.64,11.281-3.179c0.715-0.309,1.943-0.512,2.254-1.332c-0.513-1.124-1.026-2.461-1.748-3.49
	c-1.43-1.64-3.688-1.326-5.533-2.148c-2.358-1.128-2.565,2.148-4.309,2.148c-0.511-0.199-0.713-0.715-0.615-1.124
	c0.308-1.127,1.641-1.438,2.358-2.361c0.515-1.432-0.102-2.971-1.232-3.999c-0.511-1.123,1.332-1.947,0.411-2.871
	c-2.15,0.101-3.586,1.847-5.434,2.768c-0.308,0.208-0.817,0.312-1.025-0.101c0.308-1.127,1.745-2.152,2.769-2.766v-0.308
	c-0.099,0-0.205,0-0.205-0.102c-2.462,0.304-3.585-1.747-5.23-2.669c-0.612-0.307-1.43-0.204-1.947-0.511
	c-0.101-0.515,0-1.129,0.413-1.435c2.969,0.203,5.329,3.997,8.407,1.946c3.589,1.744,6.973-0.204,9.838-1.946
	c0.925-0.411,1.949-1.438,3.083-0.72c1.127-0.204,1.84-0.82,2.764-1.33c0-2.158-0.307-4.307-1.127-6.257
	c-0.306-0.508-0.818-1.023-1.537-0.82c-2.458,0.922-4.821,2.872-7.692,2.36c-0.818,0.202,0.311,0.818,0,1.229H42.71l-3.799-3.074
	c-1.233-0.718-2.461-1.439-3.694-2.255c0.209-1.745-1.946-0.818-2.769-1.538L31.432,55.247z M61.266,55.449
	c-1.337-0.308-2.358,0.515-3.691,0.515c-0.615,0.206-1.023-0.412-1.542,0c-1.843,0.618-2.557,2.563-2.768,4.308
	c0.618,0.919,1.026,2.458,2.359,2.666c2.358-0.108,4.414-1.648,5.742-3.282c0.409-0.821,0.409-1.846,0.516-2.771
	c-0.107-0.303-0.516-0.514-0.308-1.023L61.266,55.449z M36.966,95.027c-1.027-0.82-2.363-1.431-3.694-2.048
	c-1.747-0.308-4.205-1.539-5.533,0.308c-1.133,0.51-3.288,0.31-3.386,1.946c0.205,0.617,1.022,1.029,0.721,1.845
	c0.096,0.516,0.923,0.41,1.122,0.923c0,1.229,1.436,1.028,1.641,2.053c0.614,0.72,1.748,0.72,2.769,0.72
	c2.36-0.207,4.72-0.82,6.872-1.642C37.888,97.797,37.888,96.053,36.966,95.027 M69.47,101.389c-1.537-1.949-3.386-4.204-6.258-4.005
	c-0.409,0.104-0.409,0.413-0.409,0.722c0.924,1.948,2.667,3.688,4.207,5.231C67.933,102.924,68.646,102.107,69.47,101.389
	 M57.779,102.517c-0.512-0.721,0-2.153-1.227-2.153c-1.542,0.509-3.892,1.781-4.412,1.948c-0.522,0.163-5.433,0.818-7.896-0.312
	c-1.436,0.107-3.075,0.107-4.514,0.312c-0.921,0.304-1.639,1.126-2.665,1.126c-0.714,0.308-2.255,0-2.255,0
	c-1.227-0.101-2.36-0.822-3.591-0.718c-0.817,0.204-1.122,1.025-1.433,1.743c6.87,5.333,17.636,6.971,26.459,4.304
	c1.022-0.512,2.354-0.611,3.076-1.331C58.7,105.796,58.396,104.153,57.779,102.517 M62.598,100.872
	c-1.023,0.924-3.383-0.613-3.591,1.333c0.313,1.643,0.723,3.281,1.643,4.719c0.824-0.102,1.745-0.513,2.46-0.925
	c0.208-1.022-0.921-1.536-0.613-2.46c0.922-0.202,1.331,1.129,2.154,1.538c0.515-0.202,1.021-0.514,1.227-0.924
	c-0.511-1.434-1.535-1.948-2.666-3.077L62.598,100.872z"/>
<path fill="#1EBEF0" d="M6.956,130.032H8.77v12.219c0,3.235,2.021,5.188,5.154,5.188c3.135,0,5.18-1.953,5.18-5.242v-12.165h1.788
	v12.247c0,4.17-2.823,6.87-6.94,6.87c-4.146,0-6.994-2.7-6.994-6.87V130.032z M24.905,148.83h1.764v-6.445
	c0-0.643,0.05-1.257,0.207-1.818c0.595-2.22,2.513-3.796,4.739-3.796c2.511,0,2.823,1.869,2.823,3.981v8.078h1.761v-8.559
	c0-3.316-1.139-5.214-4.352-5.214c-3.081,0-4.739,2.166-5.205,3.397H26.59c0,0,0.052-0.483,0.052-1.073v-2.003h-1.737V148.83z
	 M40.759,143.936c0,4.491,3.03,5,4.533,5c0.468,0,0.753-0.054,0.753-0.054v-1.631c0,0-0.235,0.052-0.597,0.052
	c-0.984,0-2.926-0.396-2.926-3.555v-6.685h3.263v-1.525h-3.263v-3.876h-1.734v3.876h-1.735v1.525h1.707V143.936z M49.152,132.303
	h1.837v-2.271h-1.837V132.303z M49.202,148.828h1.763v-13.449h-1.763V148.828z M55.083,145.648c0,2.939,1.916,3.287,3.003,3.287
	c0.338,0,0.648-0.054,0.648-0.054v-1.631c0,0-0.208,0.028-0.439,0.028c-0.675,0-1.45-0.268-1.45-2.032v-15.215h-1.762V145.648z
	 M74.094,135.058c-3.522,0-6.423,2.647-6.423,7.06c0,4.145,2.927,7.032,6.81,7.032c2.927,0,4.818-1.87,4.818-1.87l-0.803-1.392
	c0,0-1.58,1.63-3.961,1.63c-2.695,0-4.975-1.869-5.051-5.32h9.998c0,0,0.051-0.615,0.051-0.936
	C79.532,137.918,77.695,135.058,74.094,135.058 M69.561,140.701c0.416-2.701,2.307-4.119,4.481-4.119c1.941,0,3.6,1.308,3.704,4.119
	H69.561z M86.114,148.83h1.917l4.972-13.451h-1.84l-3.6,9.866c-0.258,0.697-0.465,1.605-0.465,1.605h-0.052
	c0,0-0.209-0.938-0.442-1.605l-3.624-9.866h-1.864L86.114,148.83z M100.979,135.058c-3.521,0-6.422,2.647-6.422,7.06
	c0,4.145,2.925,7.032,6.812,7.032c2.927,0,4.816-1.87,4.816-1.87l-0.802-1.392c0,0-1.58,1.63-3.963,1.63
	c-2.692,0-4.972-1.869-5.051-5.32h9.998c0,0,0.051-0.615,0.051-0.936C106.418,137.918,104.582,135.058,100.979,135.058
	 M96.448,140.701c0.416-2.701,2.305-4.119,4.481-4.119c1.941,0,3.6,1.308,3.703,4.119H96.448z M109.528,148.83h1.764v-5.671
	c0-0.854,0.101-1.765,0.362-2.618c0.568-1.979,1.941-3.477,3.78-3.477c0.337,0,0.647,0.053,0.647,0.053v-1.791
	c0,0-0.336-0.083-0.698-0.083c-2.046,0-3.497,1.553-4.118,3.585h-0.052c0,0,0.052-0.481,0.052-1.07v-2.379h-1.737V148.83z
	 M117.457,153.642c0,0,0.931,0.803,2.279,0.803c1.734,0,3.083-1.098,3.755-2.808l6.422-16.257h-1.917l-3.755,9.813
	c-0.26,0.665-0.439,1.417-0.439,1.417h-0.052c0,0-0.208-0.752-0.467-1.417l-3.834-9.813h-1.942l5.44,13.343l-0.803,1.897
	c-0.519,1.229-1.323,2.193-2.462,2.193c-0.827,0-1.553-0.616-1.553-0.616L117.457,153.642z M145.222,135.058
	c-3.833,0-6.838,2.914-6.838,7.06c0,4.172,2.979,7.032,6.838,7.032c3.315,0,5.075-2.111,5.075-2.111l-0.803-1.418
	c0,0-1.527,1.897-4.169,1.897c-2.875,0-5.128-2.244-5.128-5.4c0-3.21,2.228-5.401,5.075-5.401c2.358,0,3.809,1.629,3.809,1.629
	l0.907-1.361C149.987,136.983,148.408,135.058,145.222,135.058 M153.512,148.828h1.763v-6.442c0-0.641,0.051-1.258,0.206-1.793
	c0.596-2.248,2.513-3.824,4.739-3.824c2.512,0,2.823,1.871,2.823,3.983v8.076h1.761v-8.557c0-3.316-1.139-5.214-4.352-5.214
	c-2.952,0-4.688,2.061-5.178,3.344h-0.053c0,0,0.053-0.483,0.053-1.098v-7.271h-1.763V148.828z M168.82,132.303h1.838v-2.271h-1.838
	V132.303z M168.87,148.828h1.763v-13.449h-1.763V148.828z M174.752,145.648c0,2.939,1.917,3.287,3.004,3.287
	c0.335,0,0.648-0.054,0.648-0.054v-1.631c0,0-0.209,0.028-0.441,0.028c-0.673,0-1.449-0.268-1.449-2.032v-15.215h-1.762V145.648z
	 M186.277,135.059c-3.42,0-5.853,2.781-5.853,7.031c0,4.172,2.177,7.06,5.671,7.06c3.418,0,4.481-2.701,4.481-2.701h0.053
	c0,0-0.053,0.373-0.053,0.963v1.419h1.708v-18.798h-1.76v6.55c0,0.562,0.052,1.017,0.052,1.017h-0.052
	C190.525,137.599,189.438,135.059,186.277,135.059 M186.354,147.519c-2.434,0-4.115-2.112-4.115-5.429
	c0-3.396,1.889-5.401,4.194-5.401c2.798,0,4.144,2.674,4.144,5.401C190.577,145.913,188.531,147.519,186.354,147.519
	 M203.451,132.303h1.838v-2.271h-1.838V132.303z M203.502,148.828h1.762v-13.449h-1.762V148.828z M208.45,147.197
	c0,0,1.656,1.952,4.817,1.952c2.615,0,4.455-1.576,4.455-3.771c0-4.438-7.021-3.634-7.021-6.604c0-1.496,1.271-2.086,2.591-2.086
	c2.151,0,3.262,1.229,3.262,1.229l0.803-1.39c0,0-1.268-1.471-4.012-1.471c-2.36,0-4.456,1.31-4.456,3.717
	c0,4.384,7.019,3.661,7.019,6.604c0,1.418-1.217,2.14-2.615,2.14c-2.436,0-3.885-1.63-3.885-1.63L208.45,147.197z M230.675,148.83
	h1.917l3.185-9.575c0.206-0.668,0.389-1.443,0.389-1.443h0.053c0,0,0.18,0.775,0.414,1.443l3.185,9.575h1.917l4.402-13.451h-1.863
	l-3.162,10.027c-0.205,0.67-0.387,1.444-0.387,1.444h-0.051c0,0-0.182-0.801-0.389-1.444l-3.213-9.974h-1.735l-3.212,9.974
	c-0.207,0.644-0.389,1.444-0.389,1.444h-0.051c0,0-0.182-0.801-0.389-1.444l-3.159-10.027h-1.866L230.675,148.83z M254.218,135.058
	c-3.521,0-6.421,2.647-6.421,7.06c0,4.145,2.926,7.032,6.81,7.032c2.926,0,4.817-1.87,4.817-1.87l-0.803-1.392
	c0,0-1.579,1.63-3.962,1.63c-2.693,0-4.973-1.869-5.05-5.32h9.998c0,0,0.051-0.615,0.051-0.936
	C259.658,137.918,257.818,135.058,254.218,135.058 M249.687,140.701c0.415-2.701,2.305-4.119,4.479-4.119
	c1.942,0,3.602,1.308,3.704,4.119H249.687z M262.897,145.648c0,2.939,1.917,3.287,3.004,3.287c0.337,0,0.648-0.054,0.648-0.054
	v-1.631c0,0-0.21,0.028-0.442,0.028c-0.674,0-1.449-0.268-1.449-2.032v-15.215h-1.761V145.648z M269.295,145.648
	c0,2.939,1.917,3.287,3.004,3.287c0.336,0,0.648-0.054,0.648-0.054v-1.631c0,0-0.21,0.028-0.441,0.028
	c-0.673,0-1.45-0.268-1.45-2.032v-15.215h-1.761V145.648z M273.829,132.836c0,0,0.364,0.419,1.013,0.419
	c0.604,0,0.969-0.404,0.969-0.894c0-1.023-1.481-0.848-1.481-1.504c0-0.251,0.229-0.461,0.555-0.461c0.39,0,0.671,0.275,0.671,0.275
	l0.195-0.369c0,0-0.299-0.317-0.866-0.317c-0.576,0-0.987,0.389-0.987,0.881c0,0.975,1.481,0.825,1.481,1.51
	c0,0.3-0.242,0.466-0.529,0.466c-0.454,0-0.777-0.341-0.777-0.341L273.829,132.836z M276.33,133.2h0.429l0.146-1.992
	c0.013-0.194,0.008-0.476,0.008-0.476h0.009c0,0,0.096,0.306,0.166,0.476l0.605,1.424h0.379l0.611-1.424
	c0.073-0.178,0.166-0.466,0.166-0.466h0.009c0,0-0.009,0.271,0.005,0.466l0.15,1.992h0.425l-0.246-3.16h-0.452l-0.701,1.709
	c-0.068,0.176-0.151,0.427-0.151,0.427h-0.008c0,0-0.085-0.251-0.152-0.427l-0.698-1.709h-0.454L276.33,133.2z"/>
<path fill="#164989" d="M111.524,5.141h11.232c5.663,0,9.685,2.919,9.685,8.093c0,2.917-1.415,5.435-3.802,6.718v0.089
	c3.448,1.017,5.086,4.2,5.086,7.386c0,6.276-5.043,9.108-10.834,9.108h-11.367V5.141z M122.756,17.963
	c2.478,0,3.892-1.769,3.892-4.024s-1.327-3.892-3.977-3.892h-5.44v7.916H122.756z M123.331,31.626c2.922,0,4.556-1.9,4.556-4.553
	c0-2.609-1.681-4.51-4.556-4.51h-6.101v9.063H123.331z M148.701,13.451c6.9,0,12.425,4.911,12.425,11.809
	c0,6.941-5.524,11.806-12.38,11.806c-6.895,0-12.422-4.865-12.422-11.806C136.324,18.362,141.851,13.451,148.701,13.451
	 M148.746,32.287c3.626,0,6.677-2.829,6.677-7.027c0-4.157-3.051-7.032-6.677-7.032c-3.668,0-6.718,2.875-6.718,7.032
	C142.028,29.458,145.078,32.287,148.746,32.287 M162.818,33.749c0,0,3.136,3.317,8.753,3.317c5.35,0,8.623-3.009,8.623-6.768
	c0-7.249-10.966-6.85-10.966-10.038c0-1.413,1.416-2.033,2.877-2.033c3.444,0,5.523,1.948,5.523,1.948l2.079-4.159
	c0,0-2.478-2.566-7.561-2.566c-4.865,0-8.623,2.434-8.623,6.634c0,7.254,10.968,6.812,10.968,10.171
	c0,1.323-1.376,2.031-2.968,2.031c-3.666,0-6.141-2.474-6.141-2.474L162.818,33.749z M185.232,28.266
	c0,7.56,6.232,8.489,9.375,8.489c1.061,0,1.723-0.133,1.723-0.133v-4.909c0,0-0.397,0.09-1.018,0.09
	c-1.545,0-4.463-0.53-4.463-4.245v-8.756h5.128v-4.466h-5.128V7.838h-5.486v6.499h-3.05v4.466h2.919V28.266z M210.709,13.451
	c6.9,0,12.429,4.911,12.429,11.809c0,6.941-5.528,11.806-12.381,11.806c-6.901,0-12.426-4.865-12.426-11.806
	C198.331,18.362,203.855,13.451,210.709,13.451 M210.757,32.287c3.623,0,6.676-2.829,6.676-7.027c0-4.157-3.053-7.032-6.676-7.032
	c-3.672,0-6.723,2.875-6.723,7.032C204.034,29.458,207.085,32.287,210.757,32.287 M226.467,36.535h5.614V26.187
	c0-1.058,0.087-2.076,0.398-3.004c0.838-2.7,3.049-4.599,6.057-4.599c2.873,0,3.583,1.856,3.583,4.599v13.353h5.566V22.03
	c0-5.967-2.827-8.579-7.824-8.579c-4.556,0-7.027,2.788-8.003,4.69h-0.089c0,0,0.089-0.708,0.089-1.548v-2.61h-5.392V36.535z
	 M124.918,43.256c-9.243,0-16.14,6.987-16.14,16.092c0,9.243,6.633,16.361,16.228,16.361c8.004,0,12.336-5.085,12.336-5.085
	l-3.006-4.112c0,0-3.67,3.978-9.109,3.978c-6.545,0-10.567-5.26-10.567-11.229c0-5.838,3.89-10.789,10.523-10.789
	c4.997,0,8.577,3.316,8.577,3.316l2.743-4.245C136.502,47.545,132.566,43.256,124.918,43.256 M141.275,75.18h5.614V64.833
	c0-1.059,0.089-2.035,0.354-2.919c0.842-2.741,3.14-4.686,6.104-4.686c2.87,0,3.58,1.855,3.58,4.598V75.18h5.572V60.678
	c0-5.972-2.83-8.579-7.827-8.579c-3.937,0-6.675,2.299-7.783,4.464h-0.087c0,0,0.087-0.794,0.087-1.901V43.784h-5.614V75.18z
	 M199.129,52.098c4.95,0,6.496,2.874,6.496,2.874h0.09c0,0-0.045-0.573-0.045-1.282v-9.905h5.618v31.396h-5.309V73.32
	c0-0.836,0.089-1.457,0.089-1.457h-0.089c0,0-1.9,3.846-7.073,3.846c-6.101,0-9.996-4.82-9.996-11.805
	C188.91,56.741,193.156,52.098,199.129,52.098 M200.188,70.979c2.919,0,5.66-2.122,5.66-7.117c0-3.495-1.855-6.943-5.613-6.943
	c-3.098,0-5.664,2.52-5.664,6.986C194.57,68.195,196.872,70.979,200.188,70.979 M216.558,75.18h5.612v-8.931
	c0-1.328,0.135-2.566,0.488-3.671c1.061-3.36,3.76-4.73,6.146-4.73c0.75,0,1.324,0.087,1.324,0.087v-5.527
	c0,0-0.486-0.091-1.016-0.091c-3.445,0-6.146,2.569-7.164,5.796h-0.089c0,0,0.089-0.752,0.089-1.595V52.63h-5.392V75.18z
	 M242.874,52.098c6.499,0,9.992,4.734,9.992,10.701c0,0.664-0.13,2.166-0.13,2.166h-15.568c0.355,3.936,3.404,5.972,6.768,5.972
	c3.625,0,6.498-2.477,6.498-2.477l2.168,4.024c0,0-3.45,3.226-9.064,3.226c-7.472,0-12.117-5.395-12.117-11.806
	C231.42,56.963,236.154,52.098,242.874,52.098 M247.207,61.119c-0.086-3.053-1.986-4.688-4.467-4.688
	c-2.872,0-4.862,1.768-5.394,4.688H247.207z M257.064,75.18h5.613V64.833c0-1.058,0.093-2.079,0.401-3.007
	c0.838-2.696,3.051-4.597,6.057-4.597c2.875,0,3.579,1.854,3.579,4.597V75.18h5.572V60.678c0-5.972-2.829-8.58-7.826-8.58
	c-4.555,0-7.029,2.788-8.003,4.688h-0.088c0,0,0.088-0.708,0.088-1.548V52.63h-5.394V75.18z M282.625,72.395
	c0,0,3.137,3.315,8.754,3.315c5.35,0,8.621-3.008,8.621-6.765c0-7.251-10.961-6.854-10.961-10.036c0-1.414,1.41-2.036,2.872-2.036
	c3.445,0,5.527,1.946,5.527,1.946l2.077-4.156c0,0-2.477-2.565-7.561-2.565c-4.865,0-8.625,2.434-8.625,6.635
	c0,7.25,10.969,6.809,10.969,10.167c0,1.326-1.373,2.036-2.964,2.036c-3.671,0-6.146-2.477-6.146-2.477L282.625,72.395z
	 M111.524,113.826h5.707v-13.18h14.371v13.18h5.706V82.432h-5.706V95.74H117.23V82.432h-5.707V113.826z M153.748,90.742
	c6.901,0,12.43,4.909,12.43,11.807c0,6.943-5.528,11.804-12.385,11.804c-6.894,0-12.422-4.86-12.422-11.804
	C141.371,95.651,146.899,90.742,153.748,90.742 M153.793,109.58c3.627,0,6.679-2.831,6.679-7.031c0-4.154-3.052-7.028-6.679-7.028
	c-3.668,0-6.719,2.874-6.719,7.028C147.074,106.749,150.125,109.58,153.793,109.58 M167.865,111.038c0,0,3.139,3.315,8.756,3.315
	c5.348,0,8.619-3.007,8.619-6.766c0-7.25-10.966-6.853-10.966-10.035c0-1.415,1.415-2.032,2.874-2.032
	c3.45,0,5.529,1.942,5.529,1.942l2.078-4.156c0,0-2.476-2.564-7.56-2.564c-4.864,0-8.622,2.431-8.622,6.632
	c0,7.253,10.965,6.811,10.965,10.17c0,1.327-1.375,2.036-2.964,2.036c-3.67,0-6.144-2.479-6.144-2.479L167.865,111.038z
	 M188.831,91.272h5.128v1.637c0,0.841-0.087,1.548-0.087,1.548h0.087c0,0,1.948-3.714,7.253-3.714c6.101,0,9.992,4.818,9.992,11.806
	c0,7.164-4.377,11.805-10.301,11.805c-4.468,0-6.458-3.094-6.458-3.094h-0.085c0,0,0.085,0.797,0.085,1.945v9.462h-5.614V91.272z
	 M199.885,109.624c3.095,0,5.659-2.522,5.659-6.986c0-4.289-2.3-7.076-5.615-7.076c-2.916,0-5.656,2.124-5.656,7.121
	C194.272,106.172,196.171,109.624,199.885,109.624 M227.265,105.558c0,7.559,6.233,8.488,9.375,8.488
	c1.058,0,1.722-0.134,1.722-0.134v-4.908c0,0-0.397,0.088-1.019,0.088c-1.545,0-4.464-0.527-4.464-4.245v-8.751h5.126v-4.468h-5.126
	v-6.502h-5.483v6.502h-3.049v4.468h2.918V105.558z M254.445,99.676h0.752v-0.312c0-2.962-1.859-3.978-4.333-3.978
	c-3.229,0-6.188,2.166-6.188,2.166l-2.128-4.026c0,0,3.493-2.784,8.846-2.784c5.925,0,9.373,3.271,9.373,8.979v14.105h-5.171v-1.858
	c0-0.885,0.089-1.595,0.089-1.595h-0.089c0.043,0-1.725,3.98-6.852,3.98c-4.028,0-7.651-2.521-7.651-7.029
	C241.094,100.163,250.774,99.676,254.445,99.676 M250.157,109.979c2.965,0,5.085-3.187,5.085-5.928v-0.528h-0.975
	c-2.873,0-7.518,0.397-7.518,3.536C246.75,108.564,247.858,109.979,250.157,109.979 M179.455,75.213h5.574V43.821h-5.574V75.213z
	 M265.503,113.742h5.573V82.352h-5.573V113.742z M285.541,46.66c0-1.598-1.294-2.892-2.891-2.892c-1.601,0-2.894,1.294-2.894,2.892
	c0,1.595,1.293,2.891,2.894,2.891C284.247,49.551,285.541,48.255,285.541,46.66 M280.664,52.368c5.99-1.658,4.78-6.354,4.77-6.403
	l-1.84,0.505c0.035,0.118,0.75,2.905-3.437,4.063L280.664,52.368 M167.933,75.214h5.622V52.64h-5.622V75.214z M173.894,46.667
	c0-1.739-1.409-3.152-3.153-3.152c-1.739,0-3.151,1.413-3.151,3.152c0,1.738,1.412,3.15,3.151,3.15
	C172.484,49.816,173.894,48.405,173.894,46.667 M214.925,113.826h5.623V91.25h-5.623V113.826z M220.889,85.278
	c0-1.741-1.411-3.154-3.152-3.154c-1.742,0-3.152,1.413-3.152,3.154c0,1.738,1.41,3.147,3.152,3.147
	C219.478,88.426,220.889,87.017,220.889,85.278"/>
</svg>
